<svg id="Layer_1" data-name="Layer 1" xmlns="http://www.w3.org/2000/svg" viewBox="0 0 43.55 24"><path d="M771.91,495.3c.08.24.27.49.24.7a33,33,0,0,1-.93,5.46,6.28,6.28,0,0,1-2.2,2.94,13,13,0,0,1-11.08,2.29c-3.76-1-5.89-3.76-6.94-7.38a1.32,1.32,0,0,1,.5-1.11,10.56,10.56,0,0,1,5.79-2c.5,0,1,0,1.55,0a15.09,15.09,0,0,1-.66-3,36.77,36.77,0,0,1,.31-4.56c.07-.72.54-1,1.28-1a11.21,11.21,0,0,1,6.82,2.18c.29.21.56.43.94.74a10.22,10.22,0,0,1,2.58-5.37c2.68-2.75,2.55-2.75,5.21,0a9.82,9.82,0,0,1,2.54,5.29l.78-.57a10.87,10.87,0,0,1,7.09-2.31,1,1,0,0,1,1.13.87,11,11,0,0,1,0,6.55l-.38,1.14a15.17,15.17,0,0,1,3.08.31,40.56,40.56,0,0,1,4.34,1.75c.68.3.75.82.55,1.52a10,10,0,0,1-11.82,7.16c-.7-.14-1.39-.32-2.08-.5-4.61-1.2-6.76-3.7-7.23-8.42a9.88,9.88,0,0,1,0-1.72,3,3,0,0,1,.36-.88,2.8,2.8,0,0,1,.4.84c.07.68,0,1.37.08,2,.33,3.47,2,5.93,5.39,7,2.42.79,4.89,1.49,7.47.84,3.44-.86,5.48-3.2,6.63-6.42a1.07,1.07,0,0,0-.36-1,9.62,9.62,0,0,0-6.83-1.62,1.55,1.55,0,0,0-.93.6,10.88,10.88,0,0,1-5.22,3.61,2.51,2.51,0,0,1-.86,0,2.76,2.76,0,0,1,.27-.73,11.07,11.07,0,0,1,5-3.88,2,2,0,0,0,1-1,9.86,9.86,0,0,0,.55-6.6.92.92,0,0,0-1.14-.81,11.16,11.16,0,0,0-5.09,1.51,4.45,4.45,0,0,0-2.31,3.33,21.38,21.38,0,0,1-1.84,4.63c-.07.17-.36.25-.55.38-.1-.24-.3-.48-.28-.7a11.87,11.87,0,0,1,1.71-5.58,2.24,2.24,0,0,0,.27-1.5,9.87,9.87,0,0,0-3.72-6.09.8.8,0,0,0-1.2,0,9.83,9.83,0,0,0-3.72,6.09,2.71,2.71,0,0,0,.34,1.69,12.28,12.28,0,0,1,1.64,5.39c0,.22-.18.46-.27.7a2.33,2.33,0,0,1-.63-.46,11.89,11.89,0,0,1-2-5.27,2.63,2.63,0,0,0-.72-1.45,9.24,9.24,0,0,0-6.76-2.52,1.16,1.16,0,0,0-.85.66,9.52,9.52,0,0,0,.55,6.7,1.78,1.78,0,0,0,.89.8,10.87,10.87,0,0,1,5.2,4,2.86,2.86,0,0,1,.25.73,2.78,2.78,0,0,1-.86,0,10.76,10.76,0,0,1-5.37-3.74,1.57,1.57,0,0,0-1-.55,9.87,9.87,0,0,0-6.56,1.49c-.54.33-.58.66-.39,1.24A9.2,9.2,0,0,0,763.22,506c.66-.16,1.32-.31,2-.5,4-1.15,5.95-3.66,6.14-7.79,0-.79.07-1.58.11-2.37ZM764,500.16l.25-.36-3.06-2.22L761,498Zm20.3-2.18-.27-.31-2.65,2,.25.33Z" transform="translate(-750.98 -483.1)"/><path d="M772.71,494.5a24.87,24.87,0,0,1-1.49-2.73,1.45,1.45,0,0,1,.38-1.26,1.57,1.57,0,0,1,2.23,0,1.4,1.4,0,0,1,.37,1.26A21.9,21.9,0,0,1,772.71,494.5Z" transform="translate(-750.98 -483.1)"/><path d="M778.48,487.31l.73-1.44.88.64-1.2,1.13Z" transform="translate(-750.98 -483.1)"/><path d="M787.66,495l1.23-1,.53.85-1.43.7Z" transform="translate(-750.98 -483.1)"/><path d="M766.62,487.94l-1.1-1.12.88-.61.63,1.45Z" transform="translate(-750.98 -483.1)"/><path d="M757.57,495.76l-1.43-.65.52-.84,1.25,1Z" transform="translate(-750.98 -483.1)"/></svg>